<svg xmlns="http://www.w3.org/2000/svg" viewBox="0 0 524.69 178.39"><defs><style>.cls-1{font-size:60px;fill:#fff;font-family:Poppins-Regular, Poppins;}.cls-2{fill:#6cf;}</style></defs><g id="Layer_2" data-name="Layer 2"><g id="Layer_1-2" data-name="Layer 1"><text class="cls-1" transform="translate(0 144.07)">Cosmos Chainlist</text><path class="cls-2" d="M342.18,12.32C327.89-2,304.77.75,285.05.07c1.36,1.36,4.08,2.72,6.12,4.76a38.63,38.63,0,0,1,8.16,12.25c10.88,0,22.44-.68,30.6,7.48,4.08,4.08,6.8,10.88,7.48,17A24.38,24.38,0,0,1,312.93,66H277.57c-5.44,0-12.92-3.4-17-7.48C251,49,252.4,38.16,256.48,27.28H238.8C234,42.92,234.72,58.56,247,70.8,255.12,79,266,83,276.21,82.36h35.36c12.24,0,23.8-3.4,32.65-12.24,13.6-16.32,12.92-42.84-2-57.8Zm-111.54,53H218.4c-5.44,0-12.93-3.4-17-7.48s-6.8-10.88-7.48-17c0-13.6,11.56-25.16,24.49-24.48h35.36c5.44,0,12.92,3.4,17,7.48,9.52,9.52,7.48,21.08,4.08,31.28h17.69c4.76-15.64,4.08-31.28-8.17-43.53C276.2,3.47,265.32-.61,255.12.07H219.76C196.63.07,178.27,18.44,179,40.88c0,21.76,18.36,41.48,40.13,40.12h25.84a26.62,26.62,0,0,1-6.8-5.44c-3.4-3.4-6.12-6.12-7.48-10.2Z"/></g></g></svg>