<svg xmlns="http://www.w3.org/2000/svg" viewBox="0 0 79.01 79.01"><defs><style>.cls-1{fill:#2845ad;}.cls-2{fill:#5494f8;}.cls-3{fill:none;}</style></defs><g id="Layer_2" data-name="Layer 2"><g id="Layer_1-2" data-name="Layer 1"><path class="cls-1" d="M27.17,7.59A34.66,34.66,0,0,1,39.31,5.37c6.2.08,12.55.87,18.21,3.54a29.86,29.86,0,0,1,11.07,9.31,26.09,26.09,0,0,1-2.26-2.54c-1.5-1.43-2.84-3.15-4.83-3.93A16.43,16.43,0,0,0,55.39,11a57.16,57.16,0,0,0-15,3.48c-5.32,2.09-10.67,4.66-14.64,8.9-.79.79-1.26,1.83-2,2.63A14.28,14.28,0,0,1,19,21.37c-.05-.1-.16-.3-.21-.41A29.83,29.83,0,0,0,28,14.79c1.32-1.43,2.56-3.43,1.88-5.44-.41-1.15-1.73-1.3-2.69-1.76M41.43,47.68c5,1.84,10,3.54,15.13,5,4.48,1.22,9,2.4,13.71,2.37a25.14,25.14,0,0,1-1.71,3.4,53.25,53.25,0,0,0-11.72,5.41C54.59,65.34,52.3,67,51,69.38a4,4,0,0,0-.25,3.05c-.06.07-.18.2-.23.27-1.6.42-3.27,1.3-4.94.66a16.59,16.59,0,0,1-7-5c-2.35-2.78-4.28-6.17-4.52-9.87-.06-3.49,2.11-6.53,4.66-8.7.87-.75,1.82-1.42,2.76-2.09Z"/><path class="cls-2" d="M24.07,7.8a21.33,21.33,0,0,1,3.1-.2c1,.46,2.28.61,2.69,1.75.67,2-.56,4-1.88,5.44A29.83,29.83,0,0,1,18.83,21l.21.41a1.25,1.25,0,0,0-1.24.06A44,44,0,0,1,9.9,24.1a10.07,10.07,0,0,1-3.18.32,3.89,3.89,0,0,1,.69-1.64A36.66,36.66,0,0,1,17.82,10.93c1.89-1.36,3.89-2.79,6.25-3.13m16.3,6.69a57,57,0,0,1,15-3.48,16.43,16.43,0,0,1,6.11.74c2,.79,3.33,2.51,4.83,3.93a25,25,0,0,0,2.26,2.54c.48.24.64.83,1,1.23a37,37,0,0,1,4.24,33.92c-.42,1.48-2.28,1.54-3.54,1.69-4.67,0-9.23-1.15-13.71-2.37-5.1-1.47-10.14-3.17-15.13-5a49.63,49.63,0,0,1-13.24-7.35c-2.47-2.12-4.76-4.76-5.39-8a8.56,8.56,0,0,1,.49-5.12A3.06,3.06,0,0,0,23.7,26c.78-.8,1.24-1.84,2-2.63,4-4.24,9.32-6.81,14.64-8.9M5.08,27.9l.19.08c1.49,1.81,3,3.6,4.49,5.39A89,89,0,0,1,18.1,45c3.53,5.43,6.69,11.38,7.33,17.92a59.4,59.4,0,0,1-.49,10.58c-1,.26-2-.39-2.94-.79A36.62,36.62,0,0,1,5.08,27.9M68.56,58.46a9.27,9.27,0,0,1,2.75-.55c.25.65-.24,1.2-.55,1.73A36.64,36.64,0,0,1,58.88,71.58c-1.62,1-3.34,2.15-5.33,2a3.56,3.56,0,0,1-2.57-1l-.49,0c.06-.07.18-.2.23-.27a4,4,0,0,1,.25-3c1.33-2.4,3.62-4,5.87-5.51A52.83,52.83,0,0,1,68.56,58.46Z"/><rect class="cls-3" width="79.01" height="79.01"/></g></g></svg>